PathFileType  4	(X/Y/Z) C:\Users\antoi\Documents\MyRepositories\mobilecap\ResultsAnalysis
DataRate	CameraRate	NumFrames	NumMarkers	Units	OrigDataRate	OrigDataStartFrame	OrigNumFrames
100.0	100.0	4	51	mm	100.0	146	232
Frame#	Time	r_knee			r_shank_antsup			r_ankle			r_calc			r_5meta			r_toe			L_knee			L_shank_antsup			L_ankle			L_calc			L_5meta			L_toe			r_sh2			r_sh3			r_sh4			L_sh2			L_sh3			r_thigh1			r_thigh2			r_thigh3			r_thigh4			r_thigh5			L_thigh1			L_thigh2			L_thigh3			L_thigh4			r.ASIS			r.PSIS			L.ASIS			L.PSIS			C7			R_Shoulder			L_Shoulder			R_Sternum			L_Sternum			R_humerus			R_elbow_med			R_elbow_lat			R_forearm			R_wrist_radius			R_wrist_ulna			L_humerus			L_elbow_med			L_elbow_lat			L_forearm			L_wrist_radius			L_wrist_ulna			R_HJC			L_HJC			R_HJC_reg			L_HJC_reg			
		X1	Y1	Z1	X2	Y2	Z2	X3	Y3	Z3	X4	Y4	Z4	X5	Y5	Z5	X6	Y6	Z6	X7	Y7	Z7	X8	Y8	Z8	X9	Y9	Z9	X10	Y10	Z10	X11	Y11	Z11	X12	Y12	Z12	X13	Y13	Z13	X14	Y14	Z14	X15	Y15	Z15	X16	Y16	Z16	X17	Y17	Z17	X18	Y18	Z18	X19	Y19	Z19	X20	Y20	Z20	X21	Y21	Z21	X22	Y22	Z22	X23	Y23	Z23	X24	Y24	Z24	X25	Y25	Z25	X26	Y26	Z26	X27	Y27	Z27	X28	Y28	Z28	X29	Y29	Z29	X30	Y30	Z30	X31	Y31	Z31	X32	Y32	Z32	X33	Y33	Z33	X34	Y34	Z34	X35	Y35	Z35	X36	Y36	Z36	X37	Y37	Z37	X38	Y38	Z38	X39	Y39	Z39	X40	Y40	Z40	X41	Y41	Z41	X42	Y42	Z42	X43	Y43	Z43	X44	Y44	Z44	X45	Y45	Z45	X46	Y46	Z46	X47	Y47	Z47	X48	Y48	Z48	X49	Y49	Z49	X50	Y50	Z50	X51	Y51	Z51	

146	1.45000000	-14.32918	430.22379	-408.85438	11.18436	348.16411	-425.53266	-232.54725	115.58259	-415.64389	-320.97098	94.66675	-448.89398	-154.67696	48.36070	-379.18100	-100.71081	62.97594	-435.45602	-19.31131	421.17934	-762.89883	-3.24299	325.51794	-773.78388	-236.63183	121.75206	-778.02718	-323.98729	94.38606	-737.67044	-160.02691	45.06313	-822.14520	-110.63667	57.44392	-765.84812	-69.08323	266.82421	-399.91948	-45.52917	403.16365	-392.10121	-122.18946	318.88183	-385.43375	-70.24792	383.66819	-782.43290	-142.02273	284.34959	-795.74179	-240.40653	654.76923	-401.86929	-149.53681	590.12123	-402.28809	-162.19326	530.21487	-375.80558	-304.87431	562.31258	-387.47980	-206.10686	497.64128	-386.91517	-226.77360	590.38887	-797.65697	-104.42354	527.71747	-781.80834	-281.38729	494.95916	-754.10131	-152.83800	434.14101	-754.00408	-256.79280	692.88195	-462.23675	-427.46285	777.18784	-548.58323	-255.44665	675.88432	-713.27373	-429.22566	778.06968	-648.64865	-165.40056	1111.98269	-636.03026	-80.15317	1066.42453	-468.61904	-87.04052	1050.13013	-792.66306	-48.29607	1015.73997	-600.72940	-46.16424	1010.96476	-649.83186	-110.27610	969.11776	-372.58655	-197.71323	764.14184	-346.13175	-176.45464	803.03437	-280.28350	-43.55072	818.55735	-326.67786	66.66244	821.87664	-376.97771	82.45467	793.66385	-362.40351	-89.81010	962.27721	-870.87693	-99.13527	724.39161	-889.79504	-88.15424	778.04571	-955.49386	-7.29197	824.01342	-891.62781	108.11385	857.13025	-809.00279	124.35799	847.99880	-839.04398	-352.15967	635.81542	-486.01778	-349.40250	626.60680	-692.25666	-343.86934	631.37103	-496.32056	-346.79872	632.83172	-662.35943	
147	1.46000000	-14.99595	426.93476	-407.26076	10.14550	344.89242	-423.98359	-234.49818	113.18836	-415.29180	-322.66885	90.70870	-448.80201	-155.44886	47.63436	-378.83476	-101.80745	63.08082	-435.28931	-18.36541	420.37502	-763.39965	-3.04091	324.32198	-773.71663	-237.11080	121.29306	-777.80681	-324.28539	93.49796	-737.36353	-160.25467	44.98719	-821.89282	-110.88198	57.61938	-765.63517	-70.31466	263.55632	-399.34940	-46.58633	399.87446	-389.52157	-123.43072	315.59198	-383.96496	-69.94821	382.51437	-781.95344	-141.98758	283.58510	-795.75248	-239.24195	652.96529	-402.29549	-148.13874	588.63485	-402.08176	-161.58783	528.11926	-375.39383	-304.08564	561.08610	-385.68022	-205.59315	495.91491	-386.19095	-224.83117	589.76052	-798.43483	-102.82105	526.92928	-781.86765	-279.67969	495.24774	-754.59243	-151.39765	433.46701	-754.10135	-255.42225	689.41358	-462.21540	-424.15545	777.19174	-548.80352	-253.87118	673.89737	-716.48821	-426.20302	778.00956	-649.26942	-158.44980	1108.61089	-637.13056	-73.20446	1061.49614	-469.76585	-79.64564	1044.95064	-792.07844	-43.05905	1010.66251	-601.27758	-40.58563	1005.49000	-650.69950	-104.16888	964.60429	-373.49303	-188.67625	758.57283	-350.51395	-168.87656	796.42850	-283.37104	-35.29588	812.87652	-328.54999	75.01716	818.02246	-378.68909	90.93614	789.55130	-364.75817	-81.44927	957.26968	-869.95360	-89.39247	719.21367	-886.16979	-77.74317	772.09695	-953.05488	1.92258	818.91109	-888.50456	115.83643	853.25948	-803.49990	132.28877	844.40597	-833.67901	-351.24660	633.86489	-487.67458	-348.80427	626.04133	-693.98418	-343.61146	629.79747	-496.57160	-347.03543	631.16735	-664.66502	
148	1.47000000	-16.03994	423.94029	-406.05569	9.09182	341.89570	-422.96911	-236.17685	110.89909	-414.99986	-324.20819	86.97422	-448.44972	-156.08539	46.96497	-378.54808	-102.81039	63.26074	-435.15241	-17.40475	419.40425	-763.61893	-2.69105	323.28682	-773.88437	-237.37929	120.99022	-777.66272	-324.45095	92.96770	-737.01229	-160.42373	44.92396	-821.74041	-111.03190	57.72635	-765.49259	-71.46179	260.64149	-398.96349	-47.49397	396.89105	-387.64957	-124.50453	312.61908	-382.83452	-69.62813	381.63971	-781.50012	-141.80234	282.67466	-795.31192	-238.25137	651.72600	-402.66835	-146.93736	585.83760	-402.62889	-161.41944	526.41833	-375.13083	-303.63706	560.48549	-384.78179	-205.55530	494.67639	-385.79412	-222.17208	590.13711	-798.90471	-100.82954	526.48556	-781.62389	-277.54238	496.36524	-754.87139	-149.88362	433.26260	-754.70306	-253.54152	687.11575	-463.32233	-420.82591	777.78846	-548.73317	-252.25637	671.83697	-716.84280	-423.08274	778.56051	-649.57121	-152.30644	1105.55157	-638.02218	-66.86968	1056.89693	-470.76743	-72.86327	1039.94957	-791.54194	-38.26753	1005.89598	-602.28195	-35.71367	1000.46966	-651.48625	-98.83372	960.66104	-374.33063	-180.67324	754.08440	-354.55240	-162.55812	790.78389	-286.02395	-28.32865	807.91590	-329.44221	82.31399	814.90057	-379.51350	98.38914	786.33799	-365.83936	-73.41799	953.19276	-869.17871	-80.93447	715.25718	-883.78807	-68.08756	767.28511	-950.95805	10.37139	814.82806	-885.63936	122.81455	850.29780	-799.33984	139.74674	841.44657	-829.31562	-350.12336	633.11008	-488.20373	-348.10674	625.52313	-694.52707	-342.48228	629.49271	-497.32223	-346.23063	630.77717	-664.90332	
149	1.48000000	-17.27096	421.51336	-405.42511	8.08014	339.50777	-422.49003	-237.43234	109.05395	-414.93826	-325.48741	83.92220	-448.15091	-156.56564	46.52199	-378.36927	-103.58186	63.46555	-435.15966	-16.23622	418.30168	-763.22297	-2.00019	322.56096	-774.11065	-237.28528	121.01980	-777.65459	-324.42022	93.05935	-736.73301	-160.45715	44.93883	-821.72017	-111.03096	57.74184	-765.47664	-72.77753	258.60837	-398.42609	-48.10253	394.52077	-387.12936	-125.38117	310.40328	-382.34246	-68.79851	381.18417	-781.48808	-141.25641	282.10355	-794.92787	-237.16803	651.19842	-402.93066	-145.84053	583.94295	-402.41671	-161.63217	525.24250	-374.86042	-303.49546	560.69837	-385.08016	-206.07275	493.99241	-385.59111	-219.42547	590.85237	-798.89537	-98.72386	526.32013	-781.21969	-275.44566	497.25491	-754.73980	-148.42099	433.15946	-755.29339	-251.44059	686.21535	-464.72266	-417.64946	778.90729	-548.58354	-250.57957	670.73043	-716.53164	-419.95384	779.53617	-649.42245	-146.78290	1103.04261	-638.64934	-61.30175	1052.82987	-471.48032	-66.26805	1036.13656	-791.11170	-33.35949	1001.99595	-602.60900	-31.05554	996.54507	-651.98682	-94.07748	957.20563	-374.88989	-173.11535	750.50083	-357.92772	-156.95529	786.04364	-288.06937	-22.30549	803.98313	-329.78413	88.81852	812.54526	-379.66984	105.06868	784.01961	-366.03365	-65.75046	949.98067	-868.60006	-73.35654	712.33341	-881.99125	-59.22798	763.56515	-949.18137	18.12846	811.65429	-883.14824	129.07162	847.90788	-796.54861	146.90518	838.95808	-826.13724	-348.53465	633.33141	-488.33718	-347.09270	625.64981	-694.65901	-340.92890	630.24282	-498.29259	-344.73401	631.27948	-664.75532	
